<?xml version="1.0" encoding="utf-8"?>
<!-- Generator: Adobe Illustrator 23.0.3, SVG Export Plug-In . SVG Version: 6.00 Build 0)  -->
<svg version="1.1" id="Layer_1" xmlns="http://www.w3.org/2000/svg" xmlns:xlink="http://www.w3.org/1999/xlink" x="0px" y="0px"
	 viewBox="0 0 58.32 45.11" style="enable-background:new 0 0 58.32 45.11;" xml:space="preserve">
<style type="text/css">
	.st0{fill:#FFFFFF;}
</style>
<g>
	<g>
		<g>
			<path class="st0" d="M35.58,30.09H22.72c-0.73,0-1.43-0.31-1.93-0.84c-0.5-0.53-0.75-1.26-0.7-1.98l0.92-12.87
				c0.1-1.37,1.25-2.45,2.63-2.45h11.02c1.38,0,2.53,1.08,2.63,2.45l0.92,12.87c0.05,0.73-0.2,1.45-0.7,1.98
				C37.01,29.78,36.31,30.09,35.58,30.09z M23.83,13.26c-0.8,0-1.48,0.63-1.53,1.43l-0.89,12.43c-0.03,0.43,0.11,0.84,0.41,1.16
				c0.29,0.32,0.69,0.49,1.12,0.49h12.41c0.43,0,0.83-0.17,1.12-0.49c0.29-0.32,0.44-0.73,0.41-1.16L36,14.69
				c-0.06-0.8-0.73-1.43-1.53-1.43H23.83z"/>
		</g>
		<g>
			<g>
				<path class="st0" d="M33.31,15.01c-0.08,0-0.16-0.02-0.23-0.05c-0.26-0.13-0.37-0.44-0.24-0.7c0.78-1.58,0.46-3.48-0.78-4.72
					c-1.6-1.6-4.21-1.6-5.81,0c-1.24,1.24-1.56,3.14-0.78,4.72c0.13,0.26,0.02,0.57-0.24,0.7c-0.26,0.13-0.57,0.02-0.7-0.24
					c-0.97-1.98-0.58-4.36,0.98-5.92c2.01-2.01,5.28-2.01,7.29,0c1.56,1.56,1.95,3.94,0.98,5.92C33.69,14.9,33.5,15.01,33.31,15.01z
					"/>
			</g>
		</g>
		<g>
			<g>
				<path class="st0" d="M25.22,16.26c-0.72,0-1.31-0.59-1.31-1.31c0-0.28,0.09-0.55,0.26-0.78c0.07-0.1,0.21-0.12,0.3-0.05
					c0.1,0.07,0.12,0.21,0.05,0.3c-0.11,0.15-0.17,0.33-0.17,0.52c0,0.48,0.39,0.88,0.88,0.88s0.88-0.39,0.88-0.88
					c0-0.46-0.36-0.84-0.82-0.87c-0.12-0.01-0.21-0.11-0.2-0.23c0.01-0.12,0.11-0.21,0.23-0.2c0.69,0.04,1.23,0.62,1.23,1.31
					C26.54,15.68,25.95,16.26,25.22,16.26z"/>
			</g>
			<g>
				<path class="st0" d="M33.1,16.26c-0.72,0-1.31-0.59-1.31-1.31c0-0.68,0.51-1.25,1.19-1.31c0.12-0.01,0.23,0.08,0.24,0.2
					c0.01,0.12-0.08,0.23-0.2,0.24c-0.45,0.04-0.8,0.42-0.8,0.87c0,0.48,0.39,0.88,0.88,0.88c0.48,0,0.88-0.39,0.88-0.88
					c0-0.2-0.06-0.38-0.19-0.54c-0.07-0.09-0.06-0.23,0.04-0.31c0.1-0.07,0.23-0.06,0.31,0.04c0.18,0.23,0.28,0.51,0.28,0.81
					C34.41,15.68,33.83,16.26,33.1,16.26z"/>
			</g>
		</g>
	</g>
</g>
</svg>
